<svg xmlns="http://www.w3.org/2000/svg" viewBox="0 0 64 64" role="img" aria-label="Aletheos">
  <defs>
    <linearGradient id="bg" x1="8" x2="56" y1="6" y2="58" gradientUnits="userSpaceOnUse">
      <stop stop-color="#101722"/>
      <stop offset=".58" stop-color="#06080c"/>
      <stop offset="1" stop-color="#030509"/>
    </linearGradient>
    <radialGradient id="glow" cx="33" cy="26" r="29" gradientUnits="userSpaceOnUse">
      <stop stop-color="#00f0ff" stop-opacity=".22"/>
      <stop offset=".58" stop-color="#00f0ff" stop-opacity=".05"/>
      <stop offset="1" stop-color="#00f0ff" stop-opacity="0"/>
    </radialGradient>
  </defs>
  <rect width="64" height="64" rx="14" fill="url(#bg)"/>
  <rect width="64" height="64" rx="14" fill="url(#glow)"/>
  <path d="M32 6.5 54 19.25v25.5L32 57.5 10 44.75v-25.5L32 6.5Z" fill="none" stroke="#00f0ff" stroke-width="2.2" stroke-linejoin="round"/>
  <path d="M32 14.5 47.25 23.25v17.5L32 49.5 16.75 40.75v-17.5L32 14.5Z" fill="none" stroke="#00e676" stroke-width="1.6" stroke-linejoin="round" stroke-dasharray="5 5" opacity=".78"/>
  <circle cx="32" cy="32" r="22.4" fill="none" stroke="#7d8aa4" stroke-width="1.1" opacity=".42"/>
  <path d="M18.5 50 32 12.8 45.5 50h-8.1l-2.2-7.1h-6.4L26.6 50h-8.1Zm12.1-13.4h2.8L32 26.4l-1.4 10.2Z" fill="#e4eaf0" fill-rule="evenodd"/>
  <circle cx="32" cy="32" r="3.2" fill="#00f0ff"/>
  <path d="M32 20v24" stroke="#00f0ff" stroke-width="1.2" stroke-linecap="round" opacity=".72"/>
</svg>
